<svg xmlns="http://www.w3.org/2000/svg" viewBox="0 0 512 512"><circle cx="255.998" cy="255.999" r="255.998" fill="#5c5e70"/><path d="M512 256c0 41.315-9.79 80.363-27.178 114.917-4.4 8.746-9.29 17.21-14.628 25.35C424.45 465.972 345.6 512 256.002 512S87.555 465.972 41.81 396.267c-5.34-8.14-10.23-16.603-14.628-25.35C9.794 336.363.003 297.316.003 256s9.79-80.363 27.178-114.917C42.04 111.566 62.436 85.308 87.022 63.7 132.11 24.045 191.24.002 256.002.002S379.895 24.045 424.982 63.7c24.586 21.608 44.983 47.866 59.84 77.385C502.21 175.638 512 214.685 512 256z" fill="#ff525d"/><path d="M484.822 76.394v294.524c-4.4 8.746-9.29 17.21-14.628 25.35C424.45 465.972 345.6 512 256.002 512S87.555 465.97 41.81 396.267c-5.34-8.14-10.23-16.603-14.628-25.35V76.394a12.69 12.69 0 0 1 12.685-12.695h432.26a12.7 12.7 0 0 1 12.695 12.695z" fill="#f9eed7"/><path d="M470.194 127.96v268.307C424.45 465.97 345.6 511.998 256.002 511.998S87.555 465.97 41.81 396.267V127.96h428.385z" fill="#5c5e70"/><circle cx="80.091" cy="97.145" r="15.672" fill="#ff525d"/><circle cx="127.111" cy="97.145" r="15.672" fill="#ffd15c"/><circle cx="176.44" cy="97.145" r="15.672" fill="#4bc999"/><path d="M420.972 82.25H232.9c-8.223 0-14.89 6.666-14.89 14.89h0c0 8.223 6.666 14.89 14.89 14.89h188.07c8.223 0 14.89-6.666 14.89-14.89h0c0-8.224-6.667-14.89-14.89-14.89z" fill="#d6c8b0"/><path d="M109.798 306.867l59.655-38.752c1.173-.94 2.818-1.176 4.463-1.176 7.046 0 15.97 7.516 15.97 17.146 0 4-1.645 7.515-4.228 9.158l-41.336 26.773 41.336 26.775c2.584 1.645 4.228 5.167 4.228 9.16 0 9.63-8.924 17.145-15.97 17.145-1.645 0-3.288-.234-4.463-1.173l-59.655-38.752c-5.402-3.523-7.28-9.16-7.28-13.152s1.88-9.63 7.28-13.15zM309.666 216.2c0 1.4-.234 3.052-.94 4.463l-82.672 169.335c-1.645 3.523-6.106 5.87-10.57 5.87-7.985 0-13.15-6.576-13.15-12.448 0-1.4.47-3.052 1.173-4.463l82.436-169.333c1.88-3.994 5.636-5.872 9.864-5.872 6.577 0 13.858 4.933 13.858 12.448zm92.54 116.97l-59.654 38.752c-1.176.94-2.82 1.173-4.463 1.173-7.046 0-15.97-7.515-15.97-17.145 0-3.992 1.643-7.515 4.227-9.16l41.336-26.775-41.336-26.773c-2.584-1.645-4.227-5.167-4.227-9.158 0-9.63 8.924-17.146 15.97-17.146 1.643 0 3.287.236 4.463 1.176l59.654 38.752c5.402 3.523 7.28 9.158 7.28 13.15s-1.878 9.63-7.28 13.152z" fill="#f9eed7"/></svg>