<svg xmlns="http://www.w3.org/2000/svg" viewBox="0 0 512 512"><path d="M512 256c0 19.508-2.184 38.494-6.31 56.738-6.416 28.348-17.533 54.91-32.496 78.817l-1.943 3.072C425.68 465.25 346.3 512 256 512S86.32 465.25 40.75 394.627c-19.822-30.7-33.25-65.912-38.4-103.77C1.16 282.123.418 273.24.136 264.234.042 261.496 0 258.76 0 256c0-24.9 3.553-48.964 10.177-71.722a252.13 252.13 0 0 1 9.415-26.645c5.862-14.106 12.967-27.564 21.16-40.26C86.32 46.75 165.7 0 256 0s169.68 46.75 215.25 117.373c10.365 16.06 18.986 33.353 25.6 51.618 3.124 8.673 5.8 17.565 8.004 26.645a251.66 251.66 0 0 1 4.953 26.645 257.12 257.12 0 0 1 2.111 26.645L512 256z" fill="#5c5e70"/><path d="M471.25 127.76v266.867C425.68 465.25 346.3 512 256 512S86.32 465.25 40.75 394.627V22.8C40.75 10.21 50.96 0 63.55 0H343.5l127.76 127.76z" fill="#f9eed7"/><path d="M343.49 104.958V0l127.76 127.76H366.29c-12.593 0-22.802-10.21-22.802-22.802z" fill="#e8dbc4"/><path d="M471.25 330.96v63.666C425.68 465.25 346.3 512 256 512S86.32 465.25 40.75 394.627V330.96h430.5zM150.505 189.965l43.046-27.963c.847-.678 2.033-.848 3.22-.848 5.084 0 11.524 5.424 11.524 12.372 0 2.88-1.186 5.422-3.05 6.6l-29.827 19.32 29.827 19.32c1.864 1.186 3.05 3.728 3.05 6.6 0 6.95-6.44 12.37-11.524 12.37-1.186 0-2.373-.17-3.22-.847l-43.046-27.963a11.53 11.53 0 0 1-5.253-9.491c-.001-2.88 1.356-6.946 5.253-9.488zm144.217-65.415c0 1.018-.17 2.203-.678 3.22L234.4 249.955c-1.186 2.542-4.406 4.236-7.626 4.236-5.762 0-9.5-4.745-9.5-8.982 0-1.016.34-2.203.847-3.22l59.483-122.185c1.355-2.882 4.067-4.237 7.118-4.237 4.746 0 10 3.56 10 8.982zm66.773 84.394l-43.044 27.963c-.848.678-2.034.847-3.22.847-5.084 0-11.524-5.422-11.524-12.37 0-2.88 1.185-5.422 3.05-6.6l29.827-19.32-29.827-19.32c-1.864-1.186-3.05-3.728-3.05-6.6 0-6.95 6.44-12.372 11.524-12.372 1.185 0 2.372.17 3.22.848l43.044 27.963a11.53 11.53 0 0 1 5.253 9.489c.001 2.88-1.356 6.948-5.253 9.5z" fill="#ff525d"/><path d="M162.67 414.688h-23.7v32.288c0 3.813-4.647 5.72-9.294 5.72s-9.294-1.906-9.294-5.72v-75.778c0-3.932 4.647-5.6 9.294-5.6s9.294 1.668 9.294 5.6v29.2h23.7v-29.2c0-3.932 4.647-5.6 9.294-5.6s9.294 1.668 9.294 5.6v75.778c0 3.813-4.647 5.72-9.294 5.72s-9.294-1.906-9.294-5.72v-32.288zm89.005-49.1c3.932 0 5.6 4.3 5.6 8.22 0 4.528-2.025 8.46-5.6 8.46h-16.443v64.697c0 3.813-4.647 5.72-9.294 5.72s-9.293-1.906-9.293-5.72V382.28h-16.443c-3.575 0-5.6-3.932-5.6-8.46 0-3.932 1.67-8.22 5.6-8.22h51.473zm60.885 56.238c-1.55 2.622-3.932 3.455-6.196 3.455-2.145 0-4.408-.715-5.838-3.455l-11.32-20.732v45.872c0 3.813-4.647 5.72-9.294 5.72s-9.294-1.906-9.294-5.72v-72.084c0-6.792 4.647-9.293 9.294-9.293 6.673 0 9.532.715 14.418 9.293l12.272 21.447 12.27-21.447c4.886-8.58 7.745-9.293 14.418-9.293 4.767 0 9.294 2.503 9.294 9.293v72.084c0 3.813-4.647 5.72-9.294 5.72s-9.294-1.906-9.294-5.72v-44.68l-11.438 19.54zm56.95 30.86c-4.05 0-8.102-1.906-8.102-5.72v-75.778c0-3.932 4.647-5.6 9.294-5.6s9.294 1.668 9.294 5.6v65.294h27.165c3.575 0 5.362 4.05 5.362 8.102s-1.788 8.102-5.362 8.102h-37.65z" fill="#f9eed7"/></svg>