<svg xmlns="http://www.w3.org/2000/svg" width="2925.333" height="2925.333" viewBox="0 0 2194 2194" fill="rgb(38.039216%,85.490196%,98.431373%)"><path d="M2194 1097.195c0-127.55-182.012-248.434-461.07-323.395 64.398-249.6 35.777-448.2-90.336-511.777-29.07-14.914-63.06-21.98-100.176-21.98v87.52c20.57 0 37.117 3.535 50.98 10.207 60.82 30.6 87.207 147.176 66.637 297.098-4.922 36.9-12.97 75.746-22.8 115.387-87.652-18.84-183.355-33.36-283.977-42.78-60.375-72.605-122.98-138.54-186.04-196.234 145.792-118.92 282.64-184.07 375.66-184.07v-87.52c-122.984 0-283.977 76.922-446.762 210.363C933.32 317.36 772.328 241.22 649.344 241.22v87.523c92.574 0 229.867 64.758 375.656 182.9-62.6 57.7-125.22 123.234-184.695 195.84-101.07 9.422-196.773 23.94-284.426 43.172-10.285-39.246-17.887-77.316-23.254-113.816-21.02-149.922 4.918-266.484 65.293-297.488 13.414-7.066 30.855-10.207 51.426-10.207v-87.52c-37.562 0-71.55 7.063-101.066 21.977-125.668 63.582-153.84 261.777-88.996 510.605C181.117 849.547 0 970.035 0 1097.195 0 1224.75 182.012 1345.63 461.07 1420.6c-64.398 249.613-35.777 448.2 90.336 511.78 29.07 14.914 63.06 21.977 100.62 21.977 122.984 0 283.977-76.922 446.762-210.363 162.785 132.656 323.777 208.797 446.762 208.797 37.563 0 71.55-7.066 101.066-21.98 125.668-63.578 153.84-261.777 88.996-510.602 277.27-74.96 458.387-195.844 458.387-323.004zm-582.266-261.777c-16.547 50.63-37.117 102.828-60.37 155.027-18.336-31.398-37.566-62.797-58.586-94.195-20.57-31.395-42.484-62.008-64.398-91.836 63.504 8.242 124.773 18.445 183.355 31.004zm-204.82 417.98c-34.883 52.984-70.656 103.22-107.777 149.926-66.633 5.102-134.16 7.848-202.137 7.848-67.527 0-135.06-2.746-201.242-7.457-37.12-46.703-73.344-96.547-108.227-149.137-33.988-51.414-64.844-103.613-93.02-156.203 27.727-52.594 59.03-105.184 92.574-156.598 34.883-52.98 70.656-103.22 107.777-149.922 66.633-5.102 134.16-7.852 202.137-7.852 67.527 0 135.06 2.75 201.242 7.457 37.12 46.707 73.344 96.55 108.227 149.14 33.988 51.414 64.844 103.6 93.02 156.203-28.176 52.6-59.03 105.18-92.574 156.594zm144.45-51.02c24.148 52.6 44.72 105.18 61.715 156.203-58.586 12.56-120.3 23.156-184.25 31.395 21.914-30.22 43.828-61.223 64.398-93.012 20.57-31.398 39.8-63.187 58.137-94.586zm-453.47 418.766c-41.6-37.68-83.18-79.672-124.324-125.594 40.25 1.57 81.4 2.75 122.984 2.75 42.035 0 83.625-.785 124.32-2.75-40.246 45.922-81.836 87.914-122.98 125.594zM765.17 1389.976c-63.504-8.238-124.77-18.445-183.355-31.004 16.547-50.63 37.117-102.828 60.375-155.023 18.336 31.395 37.563 62.793 58.582 94.2s42.484 62.012 64.398 91.836zm330.49-816.726c41.6 37.676 83.18 79.672 124.32 125.6-40.246-1.57-81.4-2.746-122.98-2.746-42.04 0-83.63.785-124.324 2.746 40.25-45.918 81.84-87.914 122.984-125.6zM764.727 804.414c-21.914 30.22-43.828 61.227-64.398 93.016-20.574 31.398-39.8 62.793-58.137 94.2-24.152-52.6-44.723-105.18-61.715-156.203 58.582-12.164 120.297-22.762 184.25-31.004zm-404.723 491.37c-158.312-59.262-260.723-136.973-260.723-198.6s102.4-139.72 260.723-198.6c38.457-14.52 80.496-27.473 123.875-39.637 25.492 76.922 59.03 156.988 100.62 239.012-41.145 81.633-74.234 161.305-99.28 237.836-44.273-12.164-86.3-25.508-125.215-40.03zm240.598 560.84c-60.82-30.613-87.207-147.176-66.637-297.102 4.922-36.9 12.97-75.746 22.8-115.383 87.652 18.836 183.355 33.36 283.977 42.777 60.375 72.605 122.98 138.543 186.04 196.234-145.8 118.918-282.637 184.07-375.656 184.07-20.12-.395-37.117-3.926-50.53-10.598zm1060.773-299.062c21.02 149.922-4.918 266.488-65.293 297.492-13.414 7.063-30.855 10.203-51.426 10.203-92.574 0-229.867-64.758-375.656-182.9 62.6-57.7 125.22-123.234 184.695-195.84 101.07-9.422 196.773-23.94 284.426-43.172 10.285 39.637 18.336 77.707 23.254 114.207zm172.176-261.777c-38.46 14.523-80.496 27.473-123.875 39.64-25.492-76.926-59.03-156.988-100.625-239.016 41.145-81.633 74.238-161.305 99.28-237.836 44.273 12.168 86.313 25.512 125.664 40.03 158.313 59.266 260.723 136.973 260.723 198.6-.445 61.617-102.855 139.72-261.168 198.6zm-532.625-198.6c0 99.06-91.5 179.36-204.37 179.36s-204.375-80.3-204.375-179.36 91.5-179.36 204.375-179.36 204.37 80.305 204.37 179.36zm0 0"/></svg>